<svg width="24" height="24" viewBox="0 0 24 24" fill="none" xmlns="http://www.w3.org/2000/svg">
<path d="M22.383 11.2763C22.299 11.0971 22.1697 10.943 22.0079 10.8291C21.8461 10.7152 21.6574 10.6455 21.4605 10.6268C20.4788 10.5265 19.5684 10.0684 18.903 9.33975C18.3319 8.69779 17.9416 7.9156 17.7721 7.07325C17.6027 6.23089 17.6601 5.35863 17.9385 4.54575C18.004 4.34952 18.0178 4.1397 17.9785 3.93657C17.9393 3.73345 17.8482 3.54389 17.7142 3.38625C17.5913 3.24097 17.4324 3.13039 17.2535 3.06553C17.0745 3.00066 16.8817 2.98376 16.6942 3.0165L16.68 3.01875C15.3955 3.30094 14.2408 4.00106 13.3967 5.00953C12.5526 6.018 12.0666 7.27789 12.015 8.592C11.4098 8.36849 10.7701 8.25274 10.125 8.25C8.9306 8.25633 7.76878 8.64012 6.80565 9.3465C5.84252 10.0529 5.12738 11.0457 4.76248 12.183C3.71952 12.4806 2.81934 13.1453 2.22795 14.0544C1.63657 14.9636 1.39387 16.0559 1.54462 17.13C1.69536 18.204 2.22939 19.1874 3.04821 19.8986C3.86702 20.6098 4.9154 21.001 5.99998 21H14.25C14.9766 21.0028 15.693 20.829 16.3376 20.4934C16.9821 20.1578 17.5354 19.6706 17.9497 19.0737C18.3641 18.4768 18.6272 17.7881 18.7163 17.067C18.8054 16.3458 18.7179 15.6138 18.4612 14.934C19.2439 14.809 19.9913 14.5201 20.6546 14.0862C21.3179 13.6523 21.8821 13.0833 22.3102 12.4163C22.4204 12.2489 22.485 12.0558 22.4977 11.8559C22.5105 11.656 22.471 11.4562 22.383 11.2763V11.2763ZM14.25 19.5H5.99998C5.24871 19.5013 4.52441 19.2201 3.97074 18.7123C3.41708 18.2045 3.07451 17.5071 3.01098 16.7585C2.94745 16.0099 3.1676 15.2648 3.62777 14.6709C4.08793 14.0771 4.75449 13.6779 5.49523 13.5525L5.99248 13.4685L6.10123 12.9765C6.30476 12.0611 6.81436 11.2424 7.5459 10.6556C8.27744 10.0689 9.1872 9.74911 10.125 9.74911C11.0628 9.74911 11.9725 10.0689 12.7041 10.6556C13.4356 11.2424 13.9452 12.0611 14.1487 12.9765L14.2575 13.4685L14.7547 13.5533C15.4945 13.6796 16.1599 14.0791 16.6192 14.6727C17.0784 15.2663 17.298 16.0107 17.2345 16.7585C17.1711 17.5063 16.8291 18.2031 16.2764 18.7108C15.7237 19.2185 15.0005 19.5001 14.25 19.5ZM17.5987 13.4993H17.583C17.0221 12.8719 16.2955 12.4156 15.4867 12.183C15.1343 11.0859 14.4536 10.1233 13.5367 9.42525C13.5292 9.3495 13.5097 9.2775 13.506 9.20025C13.4406 8.24077 13.6803 7.28519 14.1908 6.47019C14.7014 5.6552 15.4566 5.02255 16.3485 4.66275C16.1132 5.65928 16.1227 6.69794 16.3761 7.69001C16.6294 8.68209 17.1192 9.59808 17.8035 10.3598C18.5822 11.2066 19.6049 11.7905 20.73 12.0308C20.3478 12.4904 19.8692 12.8602 19.328 13.114C18.7869 13.3678 18.1965 13.4993 17.5987 13.4993V13.4993Z" fill="#E2E8F0"/>
</svg>
