<svg width="29" height="28" viewBox="0 0 29 28" fill="none" xmlns="http://www.w3.org/2000/svg">
<path d="M22.565 20.4348L27.95 15.0498C28.0891 14.9111 28.1994 14.7462 28.2746 14.5648C28.3499 14.3833 28.3887 14.1888 28.3887 13.9923C28.3887 13.7959 28.3499 13.6014 28.2746 13.4199C28.1994 13.2385 28.0891 13.0736 27.95 12.9348L22.565 7.54985C22.2845 7.26938 21.9041 7.11182 21.5075 7.11182C21.1109 7.11182 20.7305 7.26938 20.45 7.54985C20.1695 7.83031 20.012 8.21071 20.012 8.60735C20.012 9.00399 20.1695 9.38438 20.45 9.66485L23.255 12.4998H11C10.175 12.4998 9.5 13.1748 9.5 13.9998C9.5 14.8248 10.175 15.4998 11 15.4998H23.255L20.435 18.3198C20.2959 18.4586 20.1856 18.6235 20.1104 18.8049C20.0351 18.9864 19.9963 19.1809 19.9963 19.3773C19.9963 19.5738 20.0351 19.7683 20.1104 19.9498C20.1856 20.1312 20.2959 20.2961 20.435 20.4348C21.02 21.0198 21.98 21.0198 22.565 20.4348Z" fill="#E2E8F0"/>
<path d="M24.5 24.5H3.5V3.5H24.5V5C24.5 5.825 25.175 6.5 26 6.5C26.825 6.5 27.5 5.825 27.5 5V3.5C27.5 1.85 26.15 0.5 24.5 0.5H3.5C1.85 0.5 0.5 1.85 0.5 3.5V24.5C0.5 26.15 1.85 27.5 3.5 27.5H24.5C25.2956 27.5 26.0587 27.1839 26.6213 26.6213C27.1839 26.0587 27.5 25.2956 27.5 24.5V23C27.5 22.175 26.825 21.5 26 21.5C25.175 21.5 24.5 22.175 24.5 23V24.5Z" fill="#E2E8F0"/>
</svg>
