<svg width="76" height="11" viewBox="0 0 76 11" fill="none" xmlns="http://www.w3.org/2000/svg">
<path d="M0.260621 6.90815V5.21556L7.03096 2.2343V4.18174L2.39559 6.04262L2.4581 5.94164V6.18206L2.39559 6.08109L7.03096 7.94197V9.8894L0.260621 6.90815ZM12.0751 10.1539C11.4596 10.1539 10.9162 9.9984 10.445 9.68745C9.97376 9.37329 9.60511 8.93091 9.33904 8.36031C9.07297 7.7865 8.93993 7.1085 8.93993 6.32632C8.93993 5.55055 9.07297 4.87736 9.33904 4.30676C9.60511 3.73615 9.97536 3.29537 10.4498 2.98442C10.9242 2.67348 11.4724 2.518 12.0943 2.518C12.5751 2.518 12.955 2.59814 13.2339 2.75843C13.516 2.9155 13.7308 3.09502 13.8782 3.29697C14.0289 3.49573 14.1459 3.65921 14.2293 3.78744H14.3254V0.152227H15.4602V10H14.3639V8.8652H14.2293C14.1459 8.99984 14.0273 9.16974 13.8734 9.3749C13.7196 9.57685 13.5 9.75797 13.2147 9.91826C12.9294 10.0753 12.5495 10.1539 12.0751 10.1539ZM12.2289 9.13447C12.6841 9.13447 13.0688 9.01586 13.383 8.77865C13.6971 8.53822 13.9359 8.20644 14.0994 7.78329C14.2629 7.35694 14.3447 6.86487 14.3447 6.30709C14.3447 5.75571 14.2645 5.27326 14.1042 4.85973C13.944 4.443 13.7067 4.11923 13.3926 3.88842C13.0784 3.65441 12.6905 3.5374 12.2289 3.5374C11.7481 3.5374 11.3474 3.66082 11.0268 3.90765C10.7095 4.15128 10.4706 4.48307 10.3104 4.90301C10.1533 5.31974 10.0747 5.78777 10.0747 6.30709C10.0747 6.83281 10.1549 7.31046 10.3152 7.74001C10.4786 8.16637 10.7191 8.50616 11.0364 8.75941C11.357 9.00945 11.7545 9.13447 12.2289 9.13447ZM20.7928 10.1539C20.0812 10.1539 19.4673 9.99679 18.9512 9.68264C18.4383 9.36528 18.0424 8.9229 17.7635 8.3555C17.4878 7.78489 17.35 7.12132 17.35 6.36479C17.35 5.60825 17.4878 4.94148 17.7635 4.36446C18.0424 3.78423 18.4303 3.33224 18.9272 3.00847C19.4272 2.68149 20.0107 2.518 20.6774 2.518C21.0621 2.518 21.442 2.58211 21.817 2.71034C22.1921 2.83857 22.5335 3.04693 22.8413 3.33544C23.149 3.62075 23.3942 3.99901 23.577 4.47024C23.7597 4.94148 23.851 5.5217 23.851 6.21092V6.69176H18.1578V5.71083H22.697C22.697 5.2941 22.6137 4.92224 22.447 4.59527C22.2835 4.26829 22.0495 4.01023 21.7449 3.8211C21.4436 3.63197 21.0878 3.5374 20.6774 3.5374C20.2254 3.5374 19.8344 3.6496 19.5042 3.87399C19.1772 4.09518 18.9255 4.38369 18.7492 4.73952C18.5729 5.09535 18.4848 5.47682 18.4848 5.88394V6.53789C18.4848 7.09568 18.5809 7.56851 18.7733 7.95639C18.9688 8.34107 19.2397 8.63439 19.5859 8.83635C19.9321 9.0351 20.3344 9.13447 20.7928 9.13447C21.091 9.13447 21.3602 9.0928 21.6007 9.00945C21.8443 8.9229 22.0543 8.79467 22.2306 8.62477C22.4069 8.45167 22.5431 8.23689 22.6393 7.98044L23.7356 8.28818C23.6202 8.66004 23.4263 8.98701 23.1538 9.26911C22.8813 9.548 22.5447 9.76599 22.144 9.92306C21.7433 10.0769 21.2929 10.1539 20.7928 10.1539ZM31.3919 2.61417L28.6607 10H27.5067L24.7755 2.61417H26.0064L28.0452 8.49975H28.1222L30.161 2.61417H31.3919ZM32.6301 10V8.77865L36.2461 4.30195V4.24905H32.7551V2.61417H38.7129V3.94612L35.3181 8.31222V8.36512H38.8379V10H32.6301ZM42.5104 10.1394C42.0391 10.1394 41.6192 10.0577 41.2505 9.89421C40.8819 9.72752 40.5902 9.48229 40.3754 9.15852C40.1638 8.83154 40.058 8.42442 40.058 7.93716C40.058 7.52684 40.1334 7.18223 40.284 6.90334C40.4347 6.62445 40.6399 6.40005 40.8995 6.23015C41.1592 6.06025 41.4541 5.93202 41.7843 5.84547C42.1177 5.75892 42.4671 5.69801 42.8325 5.66275C43.2621 5.61787 43.6083 5.5762 43.8712 5.53773C44.134 5.49605 44.3248 5.43515 44.4434 5.35501C44.562 5.27486 44.6213 5.15625 44.6213 4.99918V4.97033C44.6213 4.66579 44.5251 4.43017 44.3328 4.26348C44.1436 4.09679 43.8744 4.01344 43.5249 4.01344C43.1563 4.01344 42.863 4.09518 42.645 4.25867C42.427 4.41895 42.2828 4.62091 42.2122 4.86454L40.3177 4.71067C40.4139 4.26188 40.603 3.87399 40.8851 3.54702C41.1672 3.21683 41.531 2.96359 41.9766 2.78728C42.4254 2.60776 42.9447 2.518 43.5346 2.518C43.9449 2.518 44.3376 2.56609 44.7126 2.66225C45.0909 2.75842 45.4259 2.90749 45.7176 3.10944C46.0125 3.3114 46.2449 3.57106 46.4148 3.88842C46.5847 4.20257 46.6697 4.57924 46.6697 5.01841V10H44.7271V8.97579H44.6694C44.5508 9.2066 44.3921 9.41016 44.1933 9.58647C43.9946 9.75958 43.7558 9.89582 43.4769 9.99519C43.198 10.0914 42.8758 10.1394 42.5104 10.1394ZM43.097 8.72575C43.3983 8.72575 43.6644 8.66645 43.8952 8.54784C44.126 8.42602 44.3071 8.26253 44.4386 8.05737C44.57 7.85221 44.6357 7.6198 44.6357 7.36014V6.57636C44.5716 6.61803 44.4834 6.6565 44.3712 6.69176C44.2622 6.72382 44.1388 6.75427 44.001 6.78312C43.8631 6.80877 43.7253 6.83281 43.5875 6.85525C43.4496 6.87449 43.3246 6.89212 43.2124 6.90815C42.972 6.94341 42.762 6.99951 42.5825 7.07644C42.403 7.15338 42.2635 7.25756 42.1641 7.38899C42.0648 7.51722 42.0151 7.6775 42.0151 7.86984C42.0151 8.14873 42.1161 8.36191 42.318 8.50937C42.5232 8.65362 42.7828 8.72575 43.097 8.72575ZM50.3073 5.73007V10H48.2589V2.61417H50.2111V3.91727H50.2977C50.4612 3.48771 50.7353 3.14791 51.1199 2.89787C51.5046 2.64462 51.971 2.518 52.5192 2.518C53.0321 2.518 53.4793 2.6302 53.8608 2.85459C54.2422 3.07899 54.5388 3.39956 54.7503 3.81629C54.9619 4.22982 55.0677 4.72349 55.0677 5.2973V10H53.0193V5.66275C53.0225 5.21075 52.9071 4.85813 52.6731 4.60488C52.4391 4.34843 52.1169 4.2202 51.7066 4.2202C51.4309 4.2202 51.1873 4.27951 50.9757 4.39812C50.7673 4.51673 50.6038 4.68983 50.4852 4.91743C50.3698 5.14183 50.3105 5.41271 50.3073 5.73007ZM58.7883 10.1394C58.317 10.1394 57.8971 10.0577 57.5285 9.89421C57.1598 9.72752 56.8681 9.48229 56.6533 9.15852C56.4417 8.83154 56.3359 8.42442 56.3359 7.93716C56.3359 7.52684 56.4113 7.18223 56.5619 6.90334C56.7126 6.62445 56.9178 6.40005 57.1774 6.23015C57.4371 6.06025 57.732 5.93202 58.0622 5.84547C58.3956 5.75892 58.745 5.69801 59.1104 5.66275C59.54 5.61787 59.8862 5.5762 60.1491 5.53773C60.4119 5.49605 60.6027 5.43515 60.7213 5.35501C60.8399 5.27486 60.8992 5.15625 60.8992 4.99918V4.97033C60.8992 4.66579 60.803 4.43017 60.6107 4.26348C60.4216 4.09679 60.1523 4.01344 59.8029 4.01344C59.4342 4.01344 59.1409 4.09518 58.9229 4.25867C58.7049 4.41895 58.5607 4.62091 58.4901 4.86454L56.5956 4.71067C56.6918 4.26188 56.8809 3.87399 57.163 3.54702C57.4451 3.21683 57.8089 2.96359 58.2545 2.78728C58.7033 2.60776 59.2226 2.518 59.8125 2.518C60.2228 2.518 60.6155 2.56609 60.9906 2.66225C61.3688 2.75842 61.7038 2.90749 61.9955 3.10944C62.2905 3.3114 62.5229 3.57106 62.6928 3.88842C62.8627 4.20257 62.9476 4.57924 62.9476 5.01841V10H61.005V8.97579H60.9473C60.8287 9.2066 60.67 9.41016 60.4712 9.58647C60.2725 9.75958 60.0337 9.89582 59.7548 9.99519C59.4759 10.0914 59.1537 10.1394 58.7883 10.1394ZM59.3749 8.72575C59.6762 8.72575 59.9423 8.66645 60.1731 8.54784C60.4039 8.42602 60.585 8.26253 60.7165 8.05737C60.8479 7.85221 60.9136 7.6198 60.9136 7.36014V6.57636C60.8495 6.61803 60.7614 6.6565 60.6492 6.69176C60.5402 6.72382 60.4167 6.75427 60.2789 6.78312C60.1411 6.80877 60.0032 6.83281 59.8654 6.85525C59.7275 6.87449 59.6025 6.89212 59.4903 6.90815C59.2499 6.94341 59.0399 6.99951 58.8604 7.07644C58.6809 7.15338 58.5414 7.25756 58.4421 7.38899C58.3427 7.51722 58.293 7.6775 58.293 7.86984C58.293 8.14873 58.394 8.36191 58.5959 8.50937C58.8011 8.65362 59.0608 8.72575 59.3749 8.72575ZM75.7394 6.90815L68.969 9.8894V7.94197L73.6044 6.08109L73.5419 6.18206V5.94164L73.6044 6.04262L68.969 4.18174V2.2343L75.7394 5.21556V6.90815Z" fill="#2D3748"/>
<path d="M65.7341 10.125C65.4168 10.125 65.1443 10.0128 64.9167 9.78843C64.6923 9.56083 64.5801 9.28834 64.5801 8.97098C64.5801 8.65683 64.6923 8.38756 64.9167 8.16316C65.1443 7.93876 65.4168 7.82657 65.7341 7.82657C66.0419 7.82657 66.3111 7.93876 66.5419 8.16316C66.7728 8.38756 66.8882 8.65683 66.8882 8.97098C66.8882 9.18256 66.8337 9.3765 66.7247 9.55281C66.6189 9.72592 66.4794 9.86536 66.3063 9.97115C66.1332 10.0737 65.9425 10.125 65.7341 10.125Z" fill="#F093AF"/>
</svg>
