<svg width="26" height="24" viewBox="0 0 26 24" fill="none" xmlns="http://www.w3.org/2000/svg">
<path d="M0 13.0457C0 13.3337 0.096 13.5684 0.298667 13.7604C0.501333 13.9524 0.757334 14.0377 1.06667 14.0377H2.86933C3.15733 14.0377 3.40267 13.9417 3.60533 13.7497C3.808 13.5577 3.91467 13.3231 3.91467 13.0457C3.91467 12.7364 3.81867 12.4804 3.616 12.2884C3.41333 12.0964 3.168 11.9897 2.88 11.9897H1.06667C0.757334 11.9897 0.501333 12.0857 0.298667 12.2884C0.096 12.4697 0 12.7257 0 13.0457V13.0457ZM1.888 19.6377C1.888 20.6724 2.26133 21.5684 3.01867 22.3257C3.776 23.0831 4.66133 23.4564 5.696 23.4564H13.0133C14.048 23.4564 14.9333 23.0831 15.6693 22.3364C16.4053 21.5897 16.7787 20.6937 16.7787 19.6377C16.7787 19.1257 16.704 18.6884 16.5547 18.3257C17.44 17.7604 18.144 17.0031 18.656 16.0644C19.168 15.1257 19.4347 14.1124 19.4347 13.0351C19.4347 12.1711 19.264 11.3391 18.9227 10.5497C18.6008 9.7902 18.1375 9.09881 17.5573 8.51239C16.9709 7.93224 16.2795 7.4689 15.52 7.14705C14.7307 6.80572 13.9093 6.63505 13.0453 6.63505C11.8827 6.63505 10.8053 6.92305 9.824 7.49905C8.84267 8.07505 8.064 8.85372 7.49867 9.82438C6.93333 10.8057 6.656 11.8724 6.656 13.0351V13.3977C5.58933 14.0057 4.88533 14.8911 4.544 16.0537C3.73333 16.3097 3.09333 16.7577 2.61333 17.4084C2.13428 18.0522 1.8795 18.8353 1.888 19.6377V19.6377ZM3.552 4.53372C3.552 4.83238 3.648 5.07772 3.82933 5.24838L5.54667 7.05105C6.048 7.43505 6.54933 7.43505 7.05067 7.05105C7.25333 6.84838 7.34933 6.60305 7.34933 6.30439C7.34933 6.01639 7.25333 5.77105 7.05067 5.55772L5.29067 3.79772C5.06667 3.59505 4.81067 3.48838 4.544 3.48838C4.24533 3.48838 4 3.58439 3.81867 3.78705C3.63733 3.98972 3.552 4.23505 3.552 4.53372V4.53372ZM4 19.6377C4 19.1897 4.13867 18.8057 4.42667 18.4857C4.71467 18.1657 5.07733 17.9844 5.51467 17.9417L6.176 17.8564C6.31467 17.8564 6.38933 17.7711 6.38933 17.6111L6.48533 17.0137C6.56 16.3951 6.816 15.8831 7.264 15.4777C7.712 15.0617 8.23467 14.8591 8.84267 14.8591C9.46133 14.8591 10.0053 15.0617 10.4533 15.4777C10.912 15.8937 11.1787 16.4057 11.2533 17.0137L11.3387 17.7071C11.4027 17.8671 11.488 17.9524 11.5947 17.9524H13.0027C13.4613 17.9524 13.856 18.1231 14.1973 18.4537C14.5387 18.7844 14.6987 19.1791 14.6987 19.6484C14.6987 20.1284 14.528 20.5337 14.1973 20.8751C13.8667 21.2164 13.4613 21.3871 13.0027 21.3871H5.696C5.216 21.3871 4.81067 21.2164 4.49067 20.8751C4.16 20.5337 4 20.1177 4 19.6377ZM8.71467 12.8217C8.78933 11.6591 9.23733 10.6777 10.0693 9.87772C10.8907 9.08839 11.8933 8.68305 13.0453 8.68305C14.2293 8.68305 15.2427 9.10972 16.0747 9.95238C16.9067 10.7951 17.3227 11.8297 17.3227 13.0351C17.3227 13.7817 17.1413 14.4751 16.7787 15.1151C16.416 15.7551 15.9253 16.2671 15.3067 16.6617C14.6773 16.1391 13.952 15.8831 13.1413 15.8831C12.832 14.9444 12.2773 14.2084 11.4987 13.6537C10.72 13.0991 9.83467 12.8217 8.85333 12.8217H8.71467V12.8217ZM12.0107 3.48838C12.0107 3.77638 12.1173 4.03239 12.32 4.23505C12.5227 4.43772 12.768 4.54439 13.056 4.54439C13.3547 4.54439 13.6 4.43772 13.8027 4.23505C13.9027 4.13848 13.9818 4.02235 14.035 3.89389C14.0882 3.76544 14.1144 3.62741 14.112 3.48838V0.992385C14.112 0.715052 14.0053 0.480385 13.8027 0.288385C13.7034 0.193402 13.5863 0.119042 13.4582 0.0696067C13.33 0.0201719 13.1933 -0.0033556 13.056 0.000385355C12.768 0.000385355 12.5227 0.0963853 12.32 0.288385C12.1173 0.480385 12.0107 0.715052 12.0107 0.992385V3.48838V3.48838ZM18.752 19.7337C18.752 20.0217 18.848 20.2671 19.04 20.4804L20.7893 22.2084C21.2373 22.6564 21.7387 22.6564 22.2933 22.2084C22.4853 22.0271 22.5707 21.7924 22.5707 21.4831C22.5707 21.1951 22.4747 20.9604 22.2933 20.7684L20.4907 18.9871C20.2934 18.8061 20.0328 18.7103 19.7653 18.7204C19.4667 18.7204 19.232 18.8164 19.04 19.0084C18.848 19.2004 18.752 19.4457 18.752 19.7337ZM18.752 6.28305C18.752 6.58172 18.848 6.83772 19.04 7.05105C19.232 7.24305 19.4773 7.33905 19.7653 7.33905C20.0533 7.33905 20.2987 7.24305 20.4907 7.05105L22.2933 5.24838C22.4853 5.06705 22.5707 4.83238 22.5707 4.53372C22.5707 4.23505 22.464 3.98972 22.2613 3.79772C22.0587 3.60572 21.8133 3.49905 21.5147 3.49905C21.2373 3.49905 20.992 3.60572 20.7893 3.80838L19.04 5.54705C18.848 5.73905 18.752 5.98439 18.752 6.28305ZM21.504 13.0457C21.504 13.3337 21.6 13.5684 21.8027 13.7604C22.0053 13.9524 22.2613 14.0377 22.5707 14.0377H24.3733C24.6613 14.0377 24.9067 13.9417 25.1093 13.7497C25.312 13.5577 25.4187 13.3231 25.4187 13.0457C25.4187 12.7364 25.3227 12.4804 25.12 12.2884C24.9173 12.0964 24.672 11.9897 24.384 11.9897H22.5813C22.272 11.9897 22.016 12.0857 21.8133 12.2884C21.6107 12.4697 21.504 12.7257 21.504 13.0457Z" fill="#2D3748"/>
</svg>
